<?xml version="1.0" encoding="utf-8"?>
<!-- Generator: Adobe Illustrator 25.2.0, SVG Export Plug-In . SVG Version: 6.00 Build 0)  -->
<svg version="1.1" id="Layer_1" xmlns="http://www.w3.org/2000/svg" xmlns:xlink="http://www.w3.org/1999/xlink" x="0px" y="0px"
	 viewBox="0 0 100 84" style="enable-background:new 0 0 100 84;" xml:space="preserve">
<style type="text/css">
	.st0{fill-rule:evenodd;clip-rule:evenodd;fill:#9094AB;}
</style>
<path class="st0" d="M8.4,0h83.1c4.6,0,8.4,3.6,8.4,8l0,0c0,4.4-3.8,8-8.4,8H8.4C3.8,16,0,12.4,0,8l0,0C0,3.6,3.8,0,8.4,0L8.4,0z"/>
<path class="st0" d="M8.4,68h83.1c4.6,0,8.4,3.6,8.4,8l0,0c0,4.4-3.8,8-8.4,8H8.4C3.8,84,0,80.4,0,76l0,0C0,71.6,3.8,68,8.4,68
	L8.4,68z"/>
<path class="st0" d="M8.4,34h83.1c4.6,0,8.4,3.6,8.4,8l0,0c0,4.4-3.8,8-8.4,8H8.4C3.8,50,0,46.4,0,42l0,0C0,37.6,3.8,34,8.4,34
	L8.4,34z"/>
</svg>
