<?xml version="1.0" encoding="utf-8"?>
<!-- Generator: Adobe Illustrator 25.2.0, SVG Export Plug-In . SVG Version: 6.00 Build 0)  -->
<svg version="1.1" id="Layer_1" xmlns="http://www.w3.org/2000/svg" xmlns:xlink="http://www.w3.org/1999/xlink" x="0px" y="0px"
	 viewBox="0 0 1536.6 1560.6" style="enable-background:new 0 0 1536.6 1560.6;" xml:space="preserve">
<style type="text/css">
	.st0{fill:#FFFFFF;}
</style>
<g>
	<path class="st0" d="M359.5,745.2H104.9c0-521.5,433.3-732.5,730.8-732.5c297.5,0,472.7,154.4,584.6,279.3
		c-223.9-176.8-506.8-259.3-815.6-47.1C350,419.3,359.5,745.2,359.5,745.2"/>
	<path class="st0" d="M1014.4,395.1l123.4-222.7c456.1,252.9,430.6,734.1,286.4,994.3c-144.2,260.2-364.2,338.5-527.8,375.9
		c263.2-110.1,472.5-317.6,436.7-690.5C1303.9,544.9,1014.4,395.1,1014.4,395.1"/>
	<path class="st0" d="M991,1152.1c0,0,63.7,110.2,127.3,220.5c-451.7,260.7-851-9-999.7-266.6C-30.2,848.3,16,619.4,68.2,460
		c-41.1,282.3,28.9,568.6,367,730C713.5,1323.2,991,1152.1,991,1152.1"/>
</g>
</svg>
