<svg width="44" height="45" xmlns="http://www.w3.org/2000/svg" xmlns:xlink="http://www.w3.org/1999/xlink" xmlns:svgjs="http://svgjs.com/svgjs" viewBox="1115 53 44 45"><svg width="33" height="29" xmlns="http://www.w3.org/2000/svg" xmlns:xlink="http://www.w3.org/1999/xlink" xmlns:svgjs="http://svgjs.com/svgjs" viewBox="0.238 0 32.525 29" fill="#03a5ed" x="1115" y="67"><svg xmlns="http://www.w3.org/2000/svg" xmlns:xlink="http://www.w3.org/1999/xlink" width="33" height="29" viewBox="0.885 0.488 31.368 27.968"><path paint-order="stroke fill markers" fill-rule="evenodd" d="M32.252 25.611c-.643-1.233-2.74-5.126-3.528-6.011-.602.08-2.607 1.212-4.508 1.68-1.73.42-3.828.672-5.787.494-6.503-.586-12.288-4.431-14.87-10.261C1.56 7 2.033 5.57 2.152.488c-1.66 3.78-1.61 9.264-.31 13.438 1.194 3.84 3.953 7.536 6.405 9.597 2.712 2.285 6.837 4.403 11.185 4.841 3.894.396 10.253-.474 12.82-2.753z"/></svg></svg><svg width="18" height="40" xmlns="http://www.w3.org/2000/svg" xmlns:xlink="http://www.w3.org/1999/xlink" xmlns:svgjs="http://svgjs.com/svgjs" viewBox="0.101 0 17.799 40" fill="#012d61" x="1141" y="58"><svg xmlns="http://www.w3.org/2000/svg" xmlns:xlink="http://www.w3.org/1999/xlink" width="18" height="40" viewBox="0.458 0.762 17.212 38.681"><path paint-order="stroke fill markers" fill-rule="evenodd" d="M3.636 6.885c.32.33 2.32 1.548 3.644 2.848.97.952 2.057 2.405 2.88 3.836 3.866 6.7 2.88 14.313-1.786 20.317-3.048 3.92-6.702 4.705-7.916 5.556 4.171-.364 9.007-3.665 10.966-5.603 6.367-6.307 8.213-16.299 3.92-24.59-1.641-3.17-4.99-7.145-8.144-8.487L3.636 6.885z"/></svg></svg><svg width="38" height="22" xmlns="http://www.w3.org/2000/svg" xmlns:xlink="http://www.w3.org/1999/xlink" xmlns:svgjs="http://svgjs.com/svgjs" viewBox="0 0.171 38 21.658" fill="#0365ca" x="1118" y="53"><svg xmlns="http://www.w3.org/2000/svg" width="38" height="22" viewBox="0.322 0.986 36.764 20.954"><path paint-order="stroke fill markers" fill-rule="evenodd" d="M.323 21.94l7.192-.004C7.74 10.157 17.885 2.679 28.157 4.274c1.756.273 3.42.772 4.89 1.48 2.434 1.173 2.688 1.76 4.04 2.517-1.119-2.257-6.585-5.504-9.765-6.427C13.89-2.053.23 7.784.322 21.94z"/></svg></svg></svg>