<svg id="Layer_1" data-name="Layer 1" xmlns="http://www.w3.org/2000/svg" viewBox="0 0 175 152"><defs><style>.cls-1{fill:#fffff7;}</style></defs><path class="cls-1" d="M60.28,48.92h-17C43.3,14.14,72.2.06,92,.06s31.53,10.3,39,18.63C116.1,6.9,97.23,1.4,76.63,15.55c-17,11.63-16.35,33.37-16.35,33.37"/><path class="cls-1" d="M104,25.57l8.23-14.85c30.42,16.86,28.72,49,19.1,66.32S107,99.61,96.09,102.11c17.55-7.35,31.51-21.19,29.13-46.06C123.27,35.56,104,25.57,104,25.57"/><path class="cls-1" d="M102.4,76.06s4.25,7.35,8.49,14.71a56.59,56.59,0,0,1-9.47,4.39C75.29,104.34,53.07,88.34,44.21,73,34.28,55.8,37.37,40.53,40.85,29.9c-2.74,18.83,1.92,37.92,24.48,48.69,11.44,5.48,22.87,3.24,30,.72"/><path class="cls-1" d="M17,130.8a3.58,3.58,0,0,0-1.47-2.67,5.81,5.81,0,0,0-3.5-.95,6.8,6.8,0,0,0-2.55.42,3.5,3.5,0,0,0-1.58,1.16,2.7,2.7,0,0,0-.55,1.67,2.27,2.27,0,0,0,.34,1.36,3.21,3.21,0,0,0,1,1,6.79,6.79,0,0,0,1.48.72A14.33,14.33,0,0,0,12,134l2.62.62a19,19,0,0,1,3.49,1.14,10.66,10.66,0,0,1,2.76,1.75A7.37,7.37,0,0,1,22.67,140a7.82,7.82,0,0,1,.66,3.23A8,8,0,0,1,22,147.84a8.58,8.58,0,0,1-3.86,3A15.39,15.39,0,0,1,12,151.94a16,16,0,0,1-6.13-1.08,8.88,8.88,0,0,1-4.06-3.21,9.49,9.49,0,0,1-1.53-5.26H6.27a4.41,4.41,0,0,0,.85,2.44,4.48,4.48,0,0,0,2,1.46,7.74,7.74,0,0,0,2.85.49,7.53,7.53,0,0,0,2.72-.45,4.18,4.18,0,0,0,1.79-1.27,2.9,2.9,0,0,0,.64-1.86,2.47,2.47,0,0,0-.57-1.65,4.62,4.62,0,0,0-1.68-1.13,16.79,16.79,0,0,0-2.69-.86L9,138.77A13.32,13.32,0,0,1,3.2,136a6.49,6.49,0,0,1-2.11-5.13,7.57,7.57,0,0,1,1.41-4.61,9.41,9.41,0,0,1,3.93-3.09,14,14,0,0,1,5.68-1.1,13.64,13.64,0,0,1,5.66,1.1,9,9,0,0,1,3.77,3.09,8.14,8.14,0,0,1,1.39,4.57Z"/><path class="cls-1" d="M25.42,127.51l-1.48-5.08H49.83l-2,5.08h-8.9v24H32.85v-24Z"/><path class="cls-1" d="M50.84,151.52H44.25l10-29.09h7.92l10,29.09H65.65l-7.29-22.44h-.22Zm-.42-11.43H66v4.8H50.42Z"/><path class="cls-1" d="M68.67,127.51l-2-5.08H92.56v5.08H83.65v24H77.57v-24Z"/><path class="cls-1" d="M96.51,151.52V122.43h19.6v5.08H102.66v6.93H115.1v5.07H102.66v6.94h13.51v5.07Z"/><path class="cls-1" d="M121,151.52V122.43h11.48a12.35,12.35,0,0,1,5.63,1.18,8.25,8.25,0,0,1,3.57,3.31,10,10,0,0,1,1.22,5,9.45,9.45,0,0,1-1.25,5,8,8,0,0,1-3.61,3.18,13.38,13.38,0,0,1-5.72,1.11h-7.68v-4.94h6.69a7.68,7.68,0,0,0,2.92-.48,3.55,3.55,0,0,0,1.74-1.45,4.59,4.59,0,0,0,.58-2.4,4.78,4.78,0,0,0-.58-2.45,3.65,3.65,0,0,0-1.74-1.51,7.42,7.42,0,0,0-2.95-.52h-4.15v24.06Zm15.71-13.23L144,151.52h-6.79l-7.07-13.23Z"/><path class="cls-1" d="M153.28,151.52h-6.6l10-29.09h7.92l10,29.09h-6.59l-7.29-22.44h-.22Zm-.42-11.43h15.57v4.8H152.86Z"/></svg>